<svg version="1.1" id="Capa_1" xmlns="http://www.w3.org/2000/svg" xmlns:xlink="http://www.w3.org/1999/xlink" x="0px" y="0px"
            viewBox="0 0 20 20" style="enable-background:new 0 0 20 20;" xml:space="preserve">
       <g id="rojo">
           <path style="fill:#EC1B27;" d="M6,14l-1.3,1.4C4.4,16,5,16.7,5.7,16.5L7,15.2L6,14z"/>
           <path style="fill:#EC1B27;" d="M6.7,16.7c-0.4,0.5,0.1,1.1,0.6,0.9l0.9-0.8l-0.7-1L6.7,16.7z"/>
           <path style="fill:#EC1B27;" d="M5.8,13.6L5,12.7l-0.9,1c-0.2,0.5,0.3,0.9,0.6,0.7L5.8,13.6z"/>
           <path style="fill:#EC1B27;" d="M13.7,8.3c2-1,3.1-3,3.7-5.7c0-0.2,0-0.4-0.2-0.5c-0.6-0.5-1.3-0.8-1.8-0.9C15,1,14.1,0.5,13.2,1.4
               l-7.4,7c-0.3,0.3-0.3,0.8,0,1.1c0.4,0.6,1.4,0.7,1.9,0.2L10,7.5c0.2-0.2,0.5-0.2,0.7,0l0.8,0.8c0,0,0.1,0.1,0.1,0.1
               C12.2,8.7,12.9,8.7,13.7,8.3z"/>
           <path style="fill:#EC1B27;" d="M18,3.2c-1.5,3.8-2.2,5.6-5.2,6c-0.3,0-0.3,0.1-0.4,0.2c0.8,1.1,1.5,2.2,2.2,2.7
               c0.4,0.3,0.6,0.2,0.8-0.1l3.2-4.2c0.2-0.3,0.3-0.6,0.3-1C19,5.5,18.6,4.3,18,3.2z"/>
       </g>
       <path id="azul" style="fill:#2E3192;" d="M15,14.2L10,8.5c-0.1-0.1-0.3-0.1-0.4,0l-2.4,2.2c-0.5,0.5-1.3,0.5-1.8,0.1
           c-0.3-0.2-0.4-0.5-0.6-0.9C4.5,8.9,5,8.5,5,8.5l4.1-3.7c0.1-0.1,0.1-0.3,0-0.4C8.5,3.8,6.7,2.2,5.4,1.9c0,0,0,0-0.1,0
           C2.6,1.7,0.5,6.2,1.1,7.7c0,0,0,0.1,0,0.1l8,10.3c0.5,0.6,1.4-0.1,0.9-0.7l-2.5-3c0-0.1-0.1-0.1-0.1-0.2c0-0.4,0.2-0.7,0.7-0.6
           c0.1,0,0.1,0.1,0.2,0.1l3.3,4c0.5,0.6,1.2-0.1,0.7-0.6l-3.5-4.3c-0.2-0.2,0.4-0.9,0.6-0.7l4.1,5.1c0.4,0.4,1.3-0.4,0.8-0.8l-4.2-5.1
           c-0.2-0.2,0.3-0.8,0.6-0.6l3.5,4.5c0.1,0.2,0.3,0.2,0.5,0C15.1,15,15.2,14.5,15,14.2z"/>
       </svg>