<?xml version="1.0" encoding="UTF-8"?>
<svg id="Capa_1" data-name="Capa 1" xmlns="http://www.w3.org/2000/svg" viewBox="0 0 127.63 120">
  <g>
    <path d="M37.73,88.99l6.46,7.31-9,8.94c-4.29,1.15-8.15-3.2-5.98-7.25l8.52-9Z" fill="#fff"/>
    <path d="M46.76,100.89l4.85,6.53-5.67,4.97c-3.17,1.68-6.7-2.67-4.03-5.66l4.85-5.84Z" fill="#fff"/>
    <path d="M31.02,79.93l4.88,5.84-6.9,5.56c-2.08,1.18-5.71-1.4-4.21-4.89l6.24-6.51Z" fill="#fff"/>
    <path d="M112.19,13.78c.28-1.27-.2-2.6-1.22-3.41-3.84-3.04-8.81-5.39-11.59-6.23-2.81-.7-8.39-3.99-14.54,1.64L35.98,51.79c-2.06,2.3-1.74,5.03-.23,7.23,2.89,4.21,9.01,4.58,12.74,1.09l15.27-14.28c1.32-1.23,3.37-1.21,4.66,.05l5.54,5.4c.22,.22,.48,.42,.75,.57,3.81,2.09,8.33,1.66,13.27-.84,13.13-6.72,20.45-19.97,24.22-37.23Z" fill="#fff"/>
    <path d="M116.36,17.67c4.24,7.23,6.92,15.18,6.65,24.49-.07,2.27-.88,4.46-2.26,6.26l-21.3,27.59c-1.33,1.72-2.99,2.33-5.31,.6-4.33-3.47-9.31-10.47-14.37-18,.24-.78,.35-1.07,2.42-1.33,20.02-2.6,24.1-14.83,34.18-39.62Z" fill="#fff"/>
  </g>
  <path d="M96.49,90.2l-32.37-37.59c-.73-.85-2.01-.93-2.84-.18l-15.9,14.37c-3.37,3.05-8.51,3.51-12.11,.74-1.7-1.31-2.81-3.04-3.82-6.15-1.99-6.16,1.27-9.06,1.27-9.06l27.02-24.11c.87-.78,.89-2.14,.03-2.93-4.15-3.86-15.65-14-24.3-16.2-.15-.04-.3-.06-.45-.07C15.2,7.67,1.41,37.66,5.24,47.55c.07,.19,.18,.36,.31,.53L58.26,115.99c2.98,3.9,9.14-.81,6.16-4.71l-16.49-20.02c-.28-.33-.45-.75-.46-1.19-.04-2.74,1.13-4.3,4.53-3.7,.44,.08,.85,.33,1.14,.68l21.9,26.16c3.24,3.71,7.95-.39,4.71-4.11l-22.95-28.02c-1.5-1.38,2.61-5.85,4.11-4.47l26.81,33.82c2.9,2.94,8.4-2.48,5.5-5.42l-27.48-33.47c-1.58-1.48,2.04-5.35,3.62-3.87l23.3,29.47c.78,.99,2.29,1.02,3.09,.04,1.41-1.71,2.02-5.06,.73-6.98Z" fill="#fff" opacity=".7"/>
</svg>